<?xml version="1.0" encoding="utf-8"?>
<!-- Generator: Adobe Illustrator 16.0.0, SVG Export Plug-In . SVG Version: 6.00 Build 0)  -->
<!DOCTYPE svg PUBLIC "-//W3C//DTD SVG 1.1//EN" "http://www.w3.org/Graphics/SVG/1.1/DTD/svg11.dtd">
<svg version="1.1" id="Layer_1" xmlns="http://www.w3.org/2000/svg" xmlns:xlink="http://www.w3.org/1999/xlink" x="0px" y="0px"
	viewBox="0 0 382.345 87.21" enable-background="new 0 0 382.345 87.21" xml:space="preserve">
<g>
	<g>
		<path fill="#FFFFFF" d="M84.605,42.446L44.728,2.572c-2.867-2.867-6.508-2.563-6.508-2.563L8.47,0.03c0,0-3.211-0.153-5.902,2.538
			S0.029,8.472,0.029,8.472L0.009,38.22c0,0-0.307,3.64,2.563,6.511l39.873,39.874c3.475,3.473,9.107,3.473,12.578,0l29.582-29.58
			C88.082,51.552,88.078,45.921,84.605,42.446z M12.921,25.213c-3.393-3.394-3.396-8.897,0-12.29c3.393-3.395,8.896-3.395,12.291,0
			c3.395,3.393,3.395,8.896,0,12.29C21.818,28.61,16.314,28.61,12.921,25.213z M71.671,51.308L51.304,71.673
			c-1.59,1.592-4.174,1.592-5.764,0c-1.594-1.594-1.594-4.174,0-5.766l13.406-13.406H28.068c-2.252,0.002-4.076-1.826-4.076-4.076
			c0-2.252,1.824-4.079,4.076-4.077l30.879-0.002L45.548,30.948c-1.594-1.593-1.594-4.174,0-5.767c1.592-1.591,4.172-1.592,5.764,0
			L71.671,45.54c0.736,0.736,1.193,1.758,1.193,2.885C72.865,49.548,72.41,50.569,71.671,51.308z"/>
	</g>
	<g>
		<path fill="#FFFFFF" d="M107.214,28.561h24.223v7.349h-15.229v9.054h14.229v7.291h-14.229v15.932h-8.994V28.561z"/>
		<path fill="#FFFFFF" d="M164.134,53.489c0,10.523-7.465,15.344-15.168,15.344c-8.406,0-14.873-5.525-14.873-14.814
			c0-9.29,6.113-15.228,15.344-15.228C158.255,38.791,164.134,44.847,164.134,53.489z M143.322,53.782
			c0,4.939,2.059,8.643,5.881,8.643c3.469,0,5.701-3.469,5.701-8.643c0-4.291-1.645-8.643-5.701-8.643
			C144.91,45.14,143.322,49.55,143.322,53.782z"/>
		<path fill="#FFFFFF" d="M168.56,26.445h8.938v41.742h-8.938V26.445z"/>
		<path fill="#FFFFFF" d="M183.38,26.445h8.938v41.742h-8.938V26.445z"/>
		<path fill="#FFFFFF" d="M226.751,53.489c0,10.523-7.467,15.344-15.17,15.344c-8.406,0-14.873-5.525-14.873-14.814
			c0-9.29,6.113-15.228,15.344-15.228C220.872,38.791,226.751,44.847,226.751,53.489z M205.938,53.782
			c0,4.939,2.057,8.643,5.879,8.643c3.469,0,5.703-3.469,5.703-8.643c0-4.291-1.646-8.643-5.703-8.643
			C207.524,45.14,205.938,49.55,205.938,53.782z"/>
		<path fill="#FFFFFF" d="M236.433,39.438l2.293,11.759c0.588,2.998,1.176,6.172,1.645,9.465h0.119
			c0.588-3.293,1.41-6.584,2.115-9.406l3.057-11.817h7.057l2.881,11.464c0.764,3.234,1.527,6.467,2.115,9.76h0.119
			c0.41-3.293,0.998-6.525,1.645-9.818l2.471-11.405h8.76l-8.818,28.749h-8.408l-2.705-10.111c-0.705-2.822-1.234-5.41-1.822-8.938
			h-0.117c-0.529,3.586-1.117,6.232-1.881,8.938l-2.881,10.111h-8.408l-8.348-28.749H236.433z"/>
		<path fill="#FFFFFF" d="M274.091,49.021c0-3.645-0.117-6.584-0.234-9.289h4.645l0.234,4.88h0.117
			c2.117-3.469,5.469-5.526,10.113-5.526c6.879,0,12.053,5.82,12.053,14.463c0,10.23-6.232,15.285-12.936,15.285
			c-3.762,0-7.055-1.646-8.76-4.467h-0.117v15.461h-5.115V49.021z M279.206,56.604c0,0.764,0.117,1.471,0.234,2.117
			c0.941,3.586,4.057,6.055,7.762,6.055c5.467,0,8.643-4.467,8.643-10.994c0-5.703-3-10.582-8.467-10.582
			c-3.527,0-6.82,2.527-7.818,6.408c-0.178,0.646-0.354,1.41-0.354,2.117V56.604z"/>
		<path fill="#FFFFFF" d="M305.931,48.608c0-3.35-0.059-6.231-0.236-8.877h4.527l0.178,5.586h0.234
			c1.293-3.822,4.41-6.232,7.879-6.232c0.588,0,0.998,0.059,1.469,0.176v4.88c-0.529-0.118-1.059-0.176-1.764-0.176
			c-3.645,0-6.232,2.763-6.938,6.644c-0.117,0.705-0.234,1.527-0.234,2.41v15.168h-5.115V48.608z"/>
		<path fill="#FFFFFF" d="M329.259,31.736c0.059,1.764-1.236,3.175-3.293,3.175c-1.822,0-3.117-1.411-3.117-3.175
			c0-1.822,1.354-3.233,3.234-3.233C328.022,28.502,329.259,29.914,329.259,31.736z M323.497,68.187V39.731h5.174v28.455H323.497z"
			/>
		<path fill="#FFFFFF" d="M355.731,67.128c-1.352,0.707-4.352,1.646-8.172,1.646c-8.584,0-14.17-5.82-14.17-14.521
			c0-8.76,5.998-15.109,15.287-15.109c3.057,0,5.762,0.765,7.172,1.47l-1.176,3.998c-1.234-0.706-3.174-1.352-5.996-1.352
			c-6.527,0-10.055,4.82-10.055,10.759c0,6.584,4.234,10.641,9.877,10.641c2.939,0,4.881-0.764,6.35-1.41L355.731,67.128z"/>
		<path fill="#FFFFFF" d="M362.179,54.899c0.119,6.996,4.586,9.877,9.76,9.877c3.705,0,5.939-0.646,7.879-1.469l0.881,3.703
			c-1.822,0.824-4.938,1.764-9.465,1.764c-8.76,0-13.992-5.762-13.992-14.346c0-8.582,5.057-15.344,13.346-15.344
			c9.289,0,11.758,8.172,11.758,13.404c0,1.059-0.117,1.881-0.176,2.41H362.179z M377.349,51.196
			c0.059-3.293-1.354-8.408-7.174-8.408c-5.232,0-7.525,4.822-7.936,8.408H377.349z"/>
	</g>
</g>
</svg>
